<?xml version="1.0" encoding="utf-8"?>
<!-- Generator: Adobe Illustrator 24.3.0, SVG Export Plug-In . SVG Version: 6.00 Build 0)  -->
<svg version="1.1" id="Layer_1" xmlns="http://www.w3.org/2000/svg" xmlns:xlink="http://www.w3.org/1999/xlink" x="0px" y="0px"
	 viewBox="0 0 841.9 595.3" style="enable-background:new 0 0 841.9 595.3;" xml:space="preserve">
<style type="text/css">
	.st0{fill:#CFDD2D;}
	.st1{fill:#E1E670;}
</style>
<path class="st0" d="M375.3,346.4c-4.1,0.8-8.1,1.6-12.2,2.5c-3.5,0.7-7,1.5-10.5,2.3c-0.3-0.3-0.4-0.1-0.6,0.1
	c-0.6,0.2-1.2,0.3-1.8,0.4c-0.2-0.2-0.5-0.2-0.7,0c0,0-0.1,0.1-0.1,0.1c-1.3,0.5-2.8,0.5-4.1,1.1c-0.1,0-0.1,0.1-0.2,0.1l-0.9,1.6
	c-0.3,0-0.5,0.3-0.4,0.6c0,0,0,0.1,0,0.1c-1.3,3.1-2.9,6.1-4.7,9c-0.6,0.1-1,0.6-1.1,1.1c-0.3,0.3-0.7,0.5-1.1,0.5
	c-0.2-0.2-0.5-0.3-0.7-0.1c-0.1,0-0.1,0.1-0.1,0.1c-1-0.1-1.9-0.8-2.1-1.8c0.2-0.8,0.2-1.6-0.1-2.4c0-0.2,0.1-0.4,0.1-0.5
	s0.2-0.1,0.2-0.2c0.6-1.7,1.1-3.3,1.7-5c0.1-0.4,0.2-0.7-0.2-1c-0.2-0.2-0.6-0.2-0.8,0.1c0,0-0.1,0.1-0.1,0.1l-3.1,0.7
	c-0.3-0.3-0.4-0.1-0.6,0.1l-3.1,0.7c-0.3-0.3-0.4-0.1-0.6,0.1l-2.7,0.6c-0.2-0.2-0.5-0.1-0.7,0.1c0,0,0,0.1-0.1,0.1l-0.5,0.1
	c-0.3-0.3-0.5-0.1-0.6,0.1l-0.5,0.1c-0.3-0.3-0.5-0.1-0.6,0.1l-1.4,0.4c-0.3-0.3-0.5-0.1-0.6,0.1l-5.5,1.5c-0.2-0.2-0.5-0.1-0.7,0.1
	c0,0,0,0.1-0.1,0.1l-0.5,0.2c-0.6-0.3-1,0-1.4,0.4l-1.3,0.4c-0.2-0.2-0.6-0.1-0.7,0.2c0,0,0,0,0,0.1l-0.5,0.2
	c-0.4-0.3-0.6,0-0.9,0.3l-0.7,0.2c-1.8,0.2-3.5,0.8-5,1.7l-0.5,0.1c-0.2-0.4-0.1-0.6,0.3-0.7s0.5-0.1,0.6-0.5l0.3-0.1
	c2-0.4,3.9-1,5.8-1.8c0.1,0,0.1-0.1,0.2-0.2l0.5-0.1c0.2,0.1,0.3,0,0.4-0.1c0,0,0,0,0,0c0.1,0,0.1-0.1,0.2-0.1
	c0.3,0,0.7,0.1,0.9-0.3l0,0c0.9,0.1,1.9-0.2,2.6-0.8c0.1,0,0.1,0,0.2,0c0.2,0.1,0.5,0,0.6-0.2c0.1,0,0.1-0.1,0.2-0.1
	c0.2,0.1,0.5,0,0.7-0.2c0.1,0,0.1-0.1,0.2-0.1c0.2,0.1,0.5,0,0.6-0.2c0,0,0.1-0.1,0.2-0.1c0.2,0.1,0.5,0,0.7,0
	c2.8-0.8,5.5-1.6,8.3-2.5c0.7-0.2,1.6-0.2,2.2-0.8c0.1,0,0.1,0,0.2,0c1.3-0.1,2.5-0.4,3.6-1.1l0.5-0.1c1,0.1,2-0.2,2.9-0.8l0.5-0.1
	c0.5,0.4,0.8,0,1.1-0.3c0.6-0.2,0.8-0.7,1-1.3c1.5-4.2,3-8.4,4.5-12.6c2.9-8.3,6-16.7,9.1-24.9c1.1-3,2.2-6,3.3-8.9
	c0.2-0.7,0.6-1.4,1.2-2c0.4-0.4,0.4-0.8-0.1-1c-0.3-0.2-0.7-0.1-0.9,0.2c0,0.1-0.1,0.2-0.1,0.2c-0.2,0.7-0.6,1.3-1.2,1.7
	c-4.3,4.5-8.5,9.1-13.2,13.3c-9.1,8.3-19,15.8-29.5,22.3c-8.8,5.4-17.8,10.3-27,14.8c-6.6,3.2-13.4,6.1-20.2,9.1
	c-8,3.4-16,6.9-24.2,9.8c-1.2,0.5-2.4,0.8-3.7,0.9c-2.2,0-3.3-1.2-3-3.4c0.3-1.8,0.9-3.6,1.7-5.2c4.5-9.6,9-19.3,13.5-28.9
	c3.6-7.7,7.2-15.3,10.8-23c6.1-13,12.2-25.9,18.4-38.9c0.4-1.3,1.1-2.6,1.9-3.8c0.4-0.5-0.3-1.4-1.1-1.3c-1.4,0.2-2.3-0.6-3.2-1.4
	c-0.7-0.7-0.7-1.8,0-2.5c0.1-0.1,0.1-0.1,0.2-0.2c0.7-0.6,1.5-1,2.4-1.3c2-0.7,4-1.2,6-1.7c9.6-2.4,19.1-5.2,28.6-8
	c11.4-3.3,22.8-6.6,34.2-9.9c0.9-0.3,1.7-0.4,2.6-0.5c1.3-0.1,2.4,0.8,2.5,2.1c0,0.2,0,0.4,0,0.5c-0.1,1.1-0.4,2.2-0.9,3.1
	c-0.9,1.7-1.9,3.4-3,5c-2.9,4.6-5.9,9.3-8.9,13.9c-2.6,3.9-5.2,7.8-7.9,11.6c-0.6,0.9-1.4,1.8-2.2,2.6c-0.6,0.8-1.7,0.9-2.5,0.3
	c-0.6-0.4-0.8-1.2-0.6-1.9c0.1-0.8,0.4-1.7,0.7-2.4c1.6-3.8,3.7-7.3,5.6-10.8c2.6-4.6,5.5-9,8.2-13.6c0.2-0.3,0.5-0.6,0.8-0.8
	c0.2-0.1,0.3-0.4,0.2-0.6c-0.1-0.2-0.3-0.4-0.6-0.4c-0.4,0.1-0.8,0.1-1.2,0.2c-8.9,2.2-17.7,4.7-26.5,7.4
	c-7.2,1.9-14.2,4.1-21.4,5.9c-3.2,0.9-3.2,0.9-4.7,3.9c-2.5,5.1-5,10.2-7.4,15.3c-3.7,7.8-7.5,15.6-11.2,23.4
	c-0.4,0.8-0.4,1.7-1.2,2.2c-0.2,0.1-0.2,0.4,0,0.6c0.2,0.2,0.5,0.3,0.8,0.1c10.5-5.6,21.3-10.7,32.7-14.4c0.7-0.2,1.5-0.4,2.2-0.6
	c0.7-0.2,1.5-0.1,2.2,0.1c1.2,0.3,1.9,1.5,1.6,2.6c-0.1,0.4-0.3,0.7-0.5,1c-0.7,0.8-1.5,1.4-2.5,1.8c-1.8,0.8-3.7,1.5-5.5,2.3
	c-7.7,3.2-15.3,6.8-22.9,10.3c-3.1,1.5-6.3,2.9-9.3,4.5c-1.9,1-3.5,2.7-4.4,4.7c-2.5,5.2-5.1,10.5-7.7,15.7
	c-3.5,7.1-7,14.3-10.6,21.4c-0.4,0.9-0.8,1.7-1.2,2.6c-0.1,0.4-0.4,0.8-0.1,1.1s0.8,0.2,1.2,0.1c2.2-0.6,4.3-1.4,6.4-2.3
	c10.4-4.5,20.8-9,31.1-13.7c6.4-3,12.6-6.2,18.9-9.6c4.1-2.2,8.3-4.4,12.3-6.9c8.4-5.2,16.3-11.1,23.7-17.6c2.9-2.6,5.8-5.1,8.5-8
	c4.6-4.9,9-10,13-15.4c2.6-3.5,4.8-7.3,7.1-11c0.9-1.4,1.8-2.9,2.7-4.3c0.3-0.5,0.7-0.9,1.1-1.3c0.7-0.7,1.8-0.7,2.5,0
	c0.2,0.2,0.3,0.4,0.4,0.7c0.4,1,0.5,2.2,0.1,3.2c-0.3,1.3-0.7,2.5-1.1,3.8c-1.8,5.1-3.9,10.2-5.8,15.2c-3.3,8.4-6.8,16.6-9.9,25.1
	c-0.8,2.1-1.4,4.2-2.1,6.3c-0.4,1.1-1.1,2.2-1.6,3.3c-0.3,0.8,0.1,1.4,0,2c0,0.2,0.2,0.3,0.4,0.3c0.2,0,0.5-0.1,0.5-0.4c0,0,0,0,0,0
	c0-1.2,0.8-2,1.1-3c0.4-1.1,0.9-2.1,1.5-3c3.2-5.2,6-10.7,9.1-15.9c5.8-9.4,11.6-18.9,18.3-27.7c1.1-1.6,2.4-3.1,3.9-4.3
	c1-0.9,2.6-1,3.7-0.1c0.6,0.4,1.1,1.1,1.2,1.9c0.2,1.1,0.1,2.3-0.2,3.4c-1,4.1-2.4,8.1-3.6,12.1c-1.6,5.2-2.9,10.5-4.2,15.8
	c-0.2,0.6-0.3,1.2-0.3,1.8c0,0.5,0.4,0.7,0.8,0.4c0.4-0.3,0.7-0.6,1-1c5.5-7.1,10.6-14.5,15.3-22.2c4.6-7.4,9.2-14.8,14.2-21.9
	c0.5-0.8,1.1-1.5,1.7-2.1c0.3-0.3,0.7-0.6,1.2-0.8c1-0.5,2.2-0.1,2.7,0.9c0.2,0.3,0.2,0.7,0.2,1.1c-0.1,0.9-0.4,1.8-0.8,2.5
	c-4.5,9.2-8.6,18.6-12.2,28.1c-4.1,10.5-7.6,21.2-10.5,32.1c-0.5,1.8-0.8,3.7-1,5.6c-0.1,1.1,0,1.2,1.1,1c5-0.8,9.9-1.5,14.9-2.3
	c7.2-1.2,14.5-2.1,21.8-3c8.1-1,16.3-1.8,24.5-2.5c5.4-0.4,10.9-0.7,16.3-1c6.9-0.4,13.8-0.5,20.7-0.4c7.9,0,15.8,0.6,23.6,1.6
	c5.6,0.7,11.2,2.1,16.5,4.2c1.3,0.6,2.6,1.2,3.8,2c0.6,0.4,1.2,0.9,1.7,1.5c1.8,1.9,2.1,4.8,0.6,6.9c-0.9,1.3-2,2.4-3.4,3.2
	c-2.6,1.6-5.4,2.9-8.4,3.8c-5.7,1.8-11.6,3.1-17.6,4c-1.4,0.2-2.7,0.5-4.1,0.7c-0.6,0.1-1.2,0.1-1.8,0c0.4-0.4,1-0.7,1.5-0.8
	c6.5-2.1,12.9-4.4,19.2-6.9c2.1-0.8,4.2-1.8,6.2-2.9c1-0.5,2-1.2,2.8-2c0.8-0.7,0.9-2,0.2-2.8c0,0-0.1-0.1-0.1-0.1
	c-0.5-0.5-1-0.9-1.6-1.2c-2.7-1.4-5.7-2.4-8.7-3c-5.3-1.1-10.7-1.9-16.2-2.3c-10.5-0.8-21.1-1.1-31.6-0.8c-11.4,0.2-22.7,0.8-34,2
	c-9.9,1-19.9,1.9-29.8,3.3c-3.3,0.5-6.5,1-9.8,1.4c-0.2-0.3-0.4-0.2-0.6,0.1l-1.4,0.2c-0.2-0.3-0.4-0.2-0.6,0.1l-2.9,0.5
	c-0.3-0.3-0.6-0.3-0.9,0.1l-1.1,0.2c-0.3-0.3-0.4-0.2-0.6,0.1l-0.9,0.2c-0.7,0.5-0.7,0.7-0.1,1.5c0.2,0.5,0.5,1,1,1.3
	c0,0.2,0.1,0.3,0.3,0.1l1.1,0.3c0.1,0.1,0.2,0.2,0.4,0.1c0.1,0,0.1,0,0.2,0.1c0,0.2,0.2,0.3,0.4,0.2c0.8,0.8,0.9,2.1,0.2,3
	c-0.6,1-1.7,1.7-2.9,1.8c-0.4-0.3-1-0.3-1.4,0c-0.6,0-1.2-0.2-1.7-0.6c0-0.3-0.3-0.5-0.5-0.5c0,0-0.1,0-0.1,0
	c-0.9-0.6-1.5-1.5-1.8-2.5c0.1-0.3,0-0.6-0.2-0.7c0,0,0,0-0.1,0l-0.1-0.5c0.3-0.3,0.2-0.4-0.1-0.6c-0.2-0.3-0.2-0.7-0.2-1.1
	c0.3-0.2,0.3-0.7,0.1-1c0,0-0.1-0.1-0.1-0.1c-0.3-0.2-0.6-0.5-0.9,0c-0.4,0.1-0.7,0.2-1.1,0.2c-0.2-0.3-0.4-0.2-0.6,0.1l-0.8,0.2
	c-0.3-0.3-0.4-0.1-0.6,0.1c-0.8,0.2-1.6,0.4-2.4,0.4c-0.2-0.2-0.5-0.2-0.7,0c0,0-0.1,0.1-0.1,0.1l-4.2,0.8
	C375.7,346.1,375.5,346.1,375.3,346.4z M381,294.2c-3.6,3.3-33.1,51.6-33.9,55.4c0.3,0.2,0.6,0.1,1,0c3.7-0.9,7.4-1.8,11.2-2.7
	c8.7-2.1,17.5-4,26.4-5.7c1.8-0.3,1.7-0.3,2-2.2c0.3-2.2,0.6-4.4,1.1-6.6c1.3-5.5,2.9-10.9,4.9-16.1c1.3-3.6,2.7-7.2,3.8-10.8
	c0.3-0.7,0.5-1.5,0.4-2.3c-0.7,0.4-1.3,1-1.6,1.8c-3.2,4.7-6.4,9.5-9.6,14.3c-1.6,2.6-3.4,5-5.3,7.4c-1.1,1.5-2.4,2.7-4,3.6
	c-2.2,1.1-3.9,0.3-4.5-2.1c-0.1-0.3-0.1-0.6-0.1-0.8c-0.1-1.7,0-3.5,0.2-5.2c0.8-5,2.2-9.9,4-14.6c1.4-3.9,2.8-7.7,3.9-11.7
	C381.1,295.3,381.1,294.7,381,294.2z"/>
<path class="st0" d="M425.4,306.2c0.4,0.2,0.8-0.1,1.1-0.3c2.5-1.2,4.7-2.9,6.5-5c0.6-0.6,1.2-1.3,1.8-1.8c1.2-1,2.5-0.6,3,0.9
	c0.3,1,0.2,2.2-0.2,3.1c-0.1,0.4-0.4,0.8,0.2,1.1c0.4,0.2,0.8,0,0.9-0.3c0-0.1,0-0.1,0.1-0.2c0.2-0.8,0.9-1.2,1.4-1.7l3.8-4.1
	c0.7-0.8,1.6-1.5,2.5-2.1c0.6-0.4,1.3-0.8,2-0.9c1.8-0.5,3.7,0.6,4.3,2.4c0.4,1.1,0.5,2.2,0.2,3.4c-0.6,3-1.4,5.9-2.5,8.7
	c-0.8,2-1.3,4.1-1.7,6.3c-0.3,1.9,0.6,2.7,2.5,2.2c2.8-0.7,4.4-2,4.9-5.3c1-6.7,4.1-13,9-17.8c1.4-1.5,3.2-2.6,5.1-3.2
	c1-0.3,2-0.4,3.1-0.2c1.8,0.3,3.2,1.7,3.4,3.5c0.3,1.8,0.1,3.7-0.7,5.4c-1.3,2.8-3.2,5.4-5.5,7.6c-1.9,2-4.1,3.8-6.4,5.4
	c-0.9,0.6-1.7,1.4-2.5,2c-0.5,0.4-0.7,0.9-0.5,1.5c0.2,1.5,1.4,2.6,2.9,2.6c1.2,0,2.4-0.3,3.4-0.8c3.7-1.8,6.9-4.4,9.2-7.8
	c2.6-3.3,4.1-7.1,5.7-10.9c0.7-1.5,1.3-3,2-4.5c0.2-0.5,0.5-0.9,0.8-1.3c0.6-0.9,1.8-1.3,2.9-0.9c1,0.5,1.5,1.7,1.2,2.8
	c-0.2,0.8-0.4,1.5-0.7,2.3c-1,3-2.5,5.8-3.7,8.8c-1.6,3.6-2.3,7.4-2.3,11.3c0.1,0.9-0.1,1.8-0.4,2.6c-0.6,1.3-1.7,1.7-2.9,0.8
	s-2.1-1.9-1.8-3.5c0.1-0.3,0-0.6-0.3-0.7c-0.3-0.1-0.6,0-0.8,0.2c-1.4,1.3-3,2.5-4.5,3.7c-1.1,0.9-2.3,1.6-3.6,2.2
	c-1.9,0.9-4,1.3-6.1,1c-2.1-0.3-4.1-1.5-5.3-3.2c-1-1.3-1-1.3-2.3-0.2c-1.2,1.1-2.7,2-4.2,2.5c-2.5,1-5.4-0.3-6.3-2.8
	c0-0.1-0.1-0.2-0.1-0.4c-0.5-2-0.5-4.1,0-6.2c0.5-2.3,1.1-4.5,1.9-6.7c0.3-1,0.6-2.1,0.8-3.1c0.1-0.3,0.1-0.7-0.2-0.9
	c-0.3-0.2-0.8-0.2-1,0.1c-0.8,0.9-1.8,1.5-2.5,2.5c-4.7,5.9-8.6,12.3-11.8,19.2c-0.5,1.1-1.1,2.1-1.7,3.1c-0.5,0.9-1.5,1.4-2.5,1.2
	c-1-0.2-1.8-1.1-2-2.2c-0.2-0.9-0.1-1.8,0.2-2.7c0.5-2.1,1.2-4.1,2-6c1-2.3,1.9-4.7,2.5-7.1c0.1-0.6,0.5-1.3,0-1.7s-1.1,0.3-1.6,0.6
	c-0.1,0.1-0.2,0.2-0.4,0.2c-1.8,1-3.2,2.7-3.8,4.7c-1.4,4.2-3.6,8.1-6.5,11.5c-1.8,2.1-4.1,3.7-6.8,4.5c-1.7,0.6-3.6,0.1-4.8-1.3
	c-1.2-1.3-1.9-2.9-2-4.6c-0.2-2.9,0.2-5.9,1.2-8.6c1.1-3.2,2.9-5.9,4.5-8.8c0.8-1.5,1.8-3,2.9-4.4c0.9-1.1,1.9-2.1,3.1-2.9
	c1-0.7,2.1-1,3.3-1.1c2.7-0.3,5.3,1.4,6,4C425,304.4,425.2,305.3,425.4,306.2z M408.8,322.8c0,0.2,0,0.4,0,0.6c0.1,2,1.2,2.6,3,1.6
	c0.8-0.5,1.4-1.1,2-1.7c2.5-2.6,3.9-5.9,5.2-9.2c0.4-0.9,0.3-1-0.6-1.4c-1.2-0.4-2.3-1.1-3.2-2c-0.8-0.8-0.8-0.8-1.4,0.2
	c-1.4,2-2.6,4.2-3.6,6.4C409.4,319.1,408.9,320.9,408.8,322.8z M471.6,298.1c0-1.3-0.7-1.7-1.8-1.2c-0.6,0.3-1.1,0.6-1.5,1.1
	c-2.2,2.4-4,5.2-5.2,8.2c-0.2,0.7-0.5,1.4-0.9,2c-0.2,0.4-0.6,0.6-0.2,1s0.8,0,1.1-0.2c0.2-0.2,0.4-0.4,0.5-0.6
	c0.4-0.5,0.8-1,1.4-1.4c2.1-1.8,4.2-3.6,5.6-6.1C471.1,299.9,471.5,299,471.6,298.1L471.6,298.1z M420.9,307.7
	c0.1-0.9-0.1-1.7-0.4-2.5c-0.2-0.8-1.1-1.3-1.9-1.1c-0.3,0.1-0.6,0.3-0.8,0.6c-1.1,1-1.1,2.8-0.1,3.9c0.3,0.3,0.7,0.6,1.2,0.7
	c1.6,0.7,2,0.4,2.1-1.3L420.9,307.7z"/>
<path class="st0" d="M520.3,302.1c-1,0.8-1.9,1.7-2.7,2.7c-2.6,2.9-5,6-7.4,9.2c-0.5,0.7-1.1,1.4-1.7,2.1c-0.8,0.8-1.6,1.7-3,1.1
	c-1.2-0.7-1.9-2.1-1.7-3.5c0.2-1.4,0.5-2.7,0.7-4.1l1-6.4c0-0.2,0.1-0.5,0.1-0.7c0-0.2,0-0.4-0.2-0.5c-0.2-0.1-0.4,0-0.5,0.1
	c-0.3,0.3-0.5,0.5-0.8,0.8c-3.8,4.8-7.2,9.9-10.6,14.9c-0.5,0.8-1.1,1.6-1.8,2.4c-0.6,1-1.8,1.4-2.9,1c-1.1-0.6-1.7-1.7-1.5-3
	c0.1-1.4,0.4-2.8,0.8-4.2c1-3.5,2.3-6.8,3.8-10.1c1.2-3.1,2.6-6.1,4.1-9c0.3-0.7,0.8-1.4,1.3-2c0.5-0.6,1.3-0.8,2-0.6
	c0.8,0.3,1.3,1,1.3,1.9c0,0.6-0.1,1.2-0.3,1.8c-0.6,1.9-1.2,3.9-1.7,5.9c-0.1,0.3-0.2,0.5-0.2,0.8c0,0.3,0.3,0.5,0.6,0.5
	c0.2,0,0.3-0.1,0.4-0.3c0.9-2.6,3.3-4.1,4.9-6.1c1.2-1.6,2.6-3.1,4.2-4.4c0.4-0.4,0.9-0.6,1.5-0.8c0.8-0.4,1.8-0.1,2.2,0.7
	c0.1,0.2,0.1,0.3,0.2,0.5c0.2,1.1,0.3,2.2,0.1,3.2c-0.4,1.9-0.6,3.7-0.8,5.6c0,0.2-0.1,0.4-0.1,0.6s0,0.5,0.2,0.6
	c0.2,0.1,0.5-0.1,0.7-0.3s0.5-0.6,0.8-0.8c3-3.2,5.8-6.6,9-9.7c0.6-0.6,1.2-1.1,1.9-1.5c2.2-1.3,4.3-0.2,4.4,2.4
	c0,1.4-0.3,2.7-0.8,4c-1,2.6-1.7,5.2-2.1,7.9c-0.2,1.4-0.3,2.8-0.1,4.2c0,1,0.6,1.9,1.6,2.3c1,0.3,2,0,2.7-0.8
	c1.1-1,1.9-2.3,2.4-3.8c1.4-3.9,3-7.7,4.9-11.3c4.2-7.9,9.9-14.9,16.8-20.6c3.4-2.7,7-5.1,10.9-7.1c0.7-0.4,1.5-0.7,2.3-0.8
	c0.7-0.2,1.5,0.1,1.9,0.8c0.3,0.7,0.2,1.6-0.5,2.1c-0.6,0.6-1.2,1.1-1.9,1.5c-5.2,3.1-9.8,6.9-13.9,11.3c-2.9,3-5.5,6.4-7.5,10.1
	c-2.5,4.6-5,9.3-6.5,14.3c-1,2.7-1.5,5.6-1.6,8.5c0,1.4,0.2,2.8,0.6,4.2c0.7,3.2,3.8,5.2,7,4.5c2.2-0.4,4.3-1.3,5.9-2.9
	c4.7-4,8.1-9.2,9.9-15.1c0.6-1.8,0.7-3.7,0.5-5.6c-0.1-2.4-2-4.3-4.4-4.2c-0.1,0-0.1,0-0.2,0c-2.8,0-5.5,1-7.7,2.9
	c-1.1,0.9-2.2,1.8-3.2,2.9c-0.4,0.4-0.8,0.7-1.2,1c-0.2,0.2-0.5,0.3-0.8,0.1c-0.2-0.2-0.3-0.5-0.2-0.8c0.1-0.4,0.2-0.8,0.4-1.2
	c2.3-4.5,6.5-7.7,11.5-8.8c5.9-1.4,11,2.4,11.4,8.9c0.3,3.2-0.2,6.4-1.4,9.3c-3.1,7.7-8.2,13.6-15.8,17.1c-2.8,1.4-6.1,1.8-9.1,1
	c-4.4-1-7.9-4.5-8.8-8.9c-0.4-1.4-0.6-2.8-0.6-4.2c0-1.1-0.2-1.1-1.2-0.6c-0.5,0.2-1,0.5-1.6,0.7c-2.9,1.2-6.2-0.3-7.4-3.2
	c0-0.1-0.1-0.2-0.1-0.3c-0.7-1.9-1-4-0.7-6c0.2-1.4,0.3-2.9,0.5-4.3L520.3,302.1z"/>
<path class="st0" d="M487,277.2c0-1.7,0.9-3.4,2.3-4.4c0.5-0.4,1.1-0.6,1.7-0.7c1.1-0.2,2.2,0.5,2.4,1.6c0.1,0.3,0.1,0.7,0,1
	c-0.5,1.9-1.3,3.8-2.3,5.5c-0.4,0.9-1.4,1.3-2.3,0.9c-0.2-0.1-0.4-0.2-0.6-0.4C487.2,279.8,487,278.6,487,277.2z"/>
<path class="st0" d="M323.8,348.1c-1.8,0-3.3-1.4-3.6-3.1c0.2-1.8,1.7-3.2,3.5-3.2c1.8,0.1,3.1,1.6,3.1,3.3
	C326.8,346.6,325.5,347.9,323.8,348.1L323.8,348.1z"/>
<path class="st1" d="M302.9,363c-0.1,0.3-0.4,0.4-0.6,0.5s-0.5,0.4-0.3,0.7c-0.2,0.3-0.6,0.3-0.9,0.3c-0.1-0.8-0.6-0.2-0.9-0.2
	c-0.1,0-0.3,0-0.2,0.2s0.2,0.1,0.4,0.2c-0.8,0.4-1.6,0.7-2.5,0.9c-2.4,0.8-4.7,1.5-7,2.5c-0.3,0.2-0.6,0.2-0.9,0.1
	c0.1-0.5,0.5-0.5,0.9-0.7c1.9-1,4-1.5,6.1-2.3c1.7-0.7,3.5-1.3,5.3-2C302.4,363,302.7,362.9,302.9,363z"/>
<path class="st1" d="M327.6,355.1c-0.6,0.6-1.5,0.6-2.2,0.8c-2.8,0.9-5.5,1.7-8.3,2.5c-0.2,0.1-0.5,0.1-0.7,0
	c0.4-0.4,0.9-0.6,1.5-0.7c2.9-0.9,5.8-1.7,8.7-2.5C326.9,355.2,327.3,355.2,327.6,355.1z"/>
<path class="st1" d="M334.9,355.2c0.1-0.3,0.5-0.4,0.7-0.2c0,0,0.1,0,0.1,0.1c0.4,0.2,0.3,0.6,0.2,1c-0.6,1.6-1.1,3.3-1.7,5
	c0,0.1-0.1,0.1-0.2,0.2c0-1.5,0.7-2.8,1.1-4.1c0.1-0.3,0.2-0.6,0.4-0.9C335.8,355.5,335.3,355.4,334.9,355.2z"/>
<path class="st1" d="M309.1,360.9c0,0.1-0.1,0.2-0.2,0.2c-1.9,0.7-3.8,1.3-5.8,1.8C305.1,361.9,307.1,361.3,309.1,360.9z"/>
<path class="st1" d="M302.5,364.1c1.5-0.9,3.2-1.4,5-1.7C306,363.2,304.3,363.8,302.5,364.1z"/>
<path class="st1" d="M331.3,354c-1.1,0.7-2.3,1.1-3.5,1.1C328.9,354.5,330.1,354.1,331.3,354z"/>
<path class="st1" d="M334.7,353.1c-0.8,0.6-1.9,0.8-2.9,0.8C332.7,353.3,333.7,353.1,334.7,353.1z"/>
<path class="st1" d="M333.9,361.7c0.3,0.8,0.3,1.6,0.1,2.4C333.5,363.4,333.5,362.5,333.9,361.7z"/>
<path class="st1" d="M313.7,359.4c-0.7,0.6-1.7,0.9-2.6,0.8C311.9,359.8,312.7,359.5,313.7,359.4z"/>
<path class="st1" d="M386.4,344.4c0.3-0.4,0.6-0.2,0.9,0c0.3,0.2,0.3,0.7,0.1,1c0,0-0.1,0.1-0.1,0.1
	C387.1,345.1,387,344.5,386.4,344.4z"/>
<path class="st1" d="M338.1,365.4c0.1-0.6,0.5-1,1.1-1.1C339.1,364.8,338.7,365.3,338.1,365.4z"/>
<path class="st1" d="M392.8,345c-0.6-0.8-0.6-1,0.1-1.5C392.9,344,392.8,344.5,392.8,345z"/>
<path class="st1" d="M392.1,352c0.4-0.3,1-0.3,1.4,0C393.1,352.3,392.6,352.3,392.1,352z"/>
<path class="st1" d="M311.7,361.2c0.4-0.4,0.8-0.7,1.4-0.4C312.7,361.2,312.2,361.3,311.7,361.2z"/>
<path class="st0" d="M300.4,364.6c-0.1,0-0.3-0.1-0.4-0.2s0.1-0.2,0.2-0.2c0.3,0,0.8-0.6,0.9,0.2h0c-0.1,0-0.2,0-0.2,0.1
	L300.4,364.6z"/>
<path class="st1" d="M336.4,352.7c-0.3,0.3-0.6,0.7-1.1,0.3C335.6,352.7,336,352.6,336.4,352.7z"/>
<path class="st1" d="M336.1,365.9c0.2-0.2,0.5-0.3,0.7-0.1c0.1,0,0.1,0.1,0.1,0.1C336.8,366.1,336.4,366.2,336.1,365.9
	C336.2,366,336.2,365.9,336.1,365.9z"/>
<path class="st1" d="M395.5,343c0.2-0.4,0.5-0.4,0.9-0.1C396.1,343.2,395.8,343.2,395.5,343z"/>
<path class="st1" d="M308.3,362.2c0.2-0.3,0.4-0.6,0.9-0.3C308.9,362.2,308.6,362.3,308.3,362.2z"/>
<path class="st1" d="M401.2,342.1c0.2-0.2,0.3-0.3,0.6-0.1C401.6,342.2,401.4,342.3,401.2,342.1
	C401.2,342.2,401.2,342.1,401.2,342.1z"/>
<path class="st1" d="M399.2,342.4c0.2-0.3,0.3-0.3,0.6-0.1C399.7,342.5,399.4,342.6,399.2,342.4
	C399.2,342.5,399.2,342.4,399.2,342.4z"/>
<path class="st1" d="M349.4,351.8c0.1-0.2,0.4-0.3,0.7-0.2c0,0,0.1,0,0.1,0.1C350,351.9,349.7,351.9,349.4,351.8z"/>
<path class="st1" d="M389.8,351c0.3-0.1,0.6,0.1,0.6,0.4c0,0,0,0.1,0,0.1C390.1,351.5,389.8,351.3,389.8,351z"/>
<path class="st1" d="M343.9,355.3c-0.1-0.2,0-0.5,0.2-0.7c0,0,0.1,0,0.1,0C344.3,354.9,344.1,355.2,343.9,355.3z"/>
<path class="st1" d="M352,351.3c0.2-0.3,0.3-0.4,0.6-0.1C352.4,351.3,352.2,351.4,352,351.3z"/>
<path class="st1" d="M387.7,347.7c0.3,0.1,0.4,0.4,0.3,0.7c0,0,0,0,0,0.1C387.7,348.4,387.6,348,387.7,347.7z"/>
<path class="st1" d="M327.5,356.9c0.2-0.2,0.3-0.4,0.6-0.1C328,357,327.7,357.1,327.5,356.9z"/>
<path class="st1" d="M324.1,357.8c0.1-0.3,0.4-0.4,0.7-0.3c0,0,0.1,0,0.1,0.1C324.7,357.9,324.4,357.9,324.1,357.8z"/>
<path class="st1" d="M323,358.1c0.1-0.3,0.3-0.5,0.6-0.1C323.5,358.2,323.2,358.2,323,358.1z"/>
<path class="st1" d="M321.9,358.4c0.1-0.3,0.3-0.5,0.6-0.1C322.3,358.4,322.1,358.5,321.9,358.4z"/>
<path class="st1" d="M319.9,359c0.1-0.3,0.3-0.5,0.6-0.1C320.3,359,320.1,359.1,319.9,359z"/>
<path class="st1" d="M313.6,360.6c0.1-0.3,0.4-0.4,0.7-0.3c0,0,0.1,0,0.1,0.1C314.2,360.7,313.9,360.8,313.6,360.6z"/>
<path class="st1" d="M387.5,346.6c0.3,0.2,0.4,0.3,0.1,0.6C387.4,347.1,387.3,346.8,387.5,346.6
	C387.5,346.6,387.5,346.6,387.5,346.6z"/>
<path class="st1" d="M309.6,361.8c0.1-0.3,0.4-0.4,0.7-0.3c0,0,0,0,0.1,0C310.2,361.8,309.9,361.9,309.6,361.8z"/>
<path class="st1" d="M331.2,356.1c0.2-0.2,0.3-0.4,0.6-0.1C331.7,356.1,331.4,356.2,331.2,356.1z"/>
<path class="st1" d="M375.3,346.4c0.1-0.3,0.3-0.4,0.6-0.1C375.8,346.5,375.6,346.6,375.3,346.4
	C375.4,346.5,375.3,346.4,375.3,346.4z"/>
<path class="st1" d="M380.1,345.6c0.1-0.2,0.4-0.3,0.6-0.2c0,0,0.1,0,0.1,0.1C380.7,345.6,380.4,345.7,380.1,345.6z"/>
<path class="st1" d="M383.2,345c0.2-0.2,0.3-0.4,0.6-0.1C383.7,345.1,383.4,345.1,383.2,345z"/>
<path class="st1" d="M384.7,344.7c0.2-0.2,0.4-0.4,0.6-0.1C385.1,344.8,384.9,344.8,384.7,344.7z"/>
<path class="st1" d="M393.8,343.3c0.2-0.3,0.3-0.4,0.6-0.1C394.2,343.4,394,343.4,393.8,343.3z"/>
<path class="st1" d="M311.1,360.2c-0.2,0.4-0.5,0.3-0.9,0.3C310.4,360.3,310.8,360.2,311.1,360.2z"/>
<path class="st1" d="M316.2,358.5c-0.1,0.2-0.4,0.4-0.6,0.2C315.7,358.6,316,358.5,316.2,358.5z"/>
<path class="st1" d="M315.4,358.8c-0.1,0.2-0.4,0.3-0.7,0.2C314.9,358.9,315.1,358.8,315.4,358.8z"/>
<path class="st1" d="M314.5,359.1c-0.1,0.2-0.4,0.3-0.6,0.2C314,359.2,314.3,359.1,314.5,359.1z"/>
<path class="st1" d="M345.2,353c0-0.1,0.1-0.1,0.2-0.1C345.4,353,345.3,353.1,345.2,353z"/>
<path class="st1" d="M395.6,346.8c-0.1,0.1-0.3,0-0.4-0.1C395.4,346.6,395.5,346.7,395.6,346.8z"/>
<path class="st1" d="M396.1,347.2c-0.2,0-0.3-0.1-0.4-0.2C395.9,346.9,396.1,347,396.1,347.2z"/>
<path class="st1" d="M310,360.6c-0.1,0.2-0.2,0.2-0.4,0.2c0,0,0,0,0,0C309.7,360.6,309.8,360.6,310,360.6z"/>
<path class="st1" d="M394.1,346.4c-0.2,0.2-0.2,0.1-0.3-0.1L394.1,346.4z"/>
<path class="st1" d="M300.9,364.6c0.1,0,0.1-0.1,0.2-0.1C301,364.7,301,364.7,300.9,364.6z"/>
</svg>
